<?xml version="1.0" standalone="no"?>
<!DOCTYPE svg PUBLIC "-//W3C//DTD SVG 20010904//EN"
 "http://www.w3.org/TR/2001/REC-SVG-20010904/DTD/svg10.dtd">
<svg version="1.0" xmlns="http://www.w3.org/2000/svg"
 width="352.000000pt" height="121.000000pt" viewBox="0 0 352.000000 121.000000"
 preserveAspectRatio="xMidYMid meet">

<g transform="translate(0.000000,121.000000) scale(0.100000,-0.100000)"
fill="#000000" stroke="none">
<path d="M787 611 c-32 -16 -39 -17 -44 -5 -3 9 -20 14 -44 14 l-39 0 2 -167
3 -168 43 -3 42 -3 0 115 c0 103 2 118 20 136 26 26 62 25 86 -1 16 -17 20
-40 23 -135 l3 -114 39 0 39 0 0 128 c0 136 -7 162 -50 193 -41 28 -80 32
-123 10z"/>
<path d="M1065 615 c-52 -19 -75 -48 -75 -95 0 -46 30 -74 94 -90 67 -17 88
-29 84 -47 -2 -10 -16 -22 -31 -27 -22 -8 -33 -6 -57 13 -23 17 -39 21 -60 16
-39 -9 -45 -21 -25 -51 50 -77 221 -67 254 15 27 63 -7 111 -96 137 -72 20
-88 32 -72 50 13 16 75 19 84 3 4 -6 20 -7 38 -3 46 9 48 12 32 38 -29 45
-108 64 -170 41z"/>
<path d="M1925 621 c-79 -19 -120 -76 -120 -166 0 -77 25 -122 85 -152 54 -28
101 -29 156 -4 42 19 80 60 66 72 -18 17 -69 20 -82 4 -18 -22 -92 -20 -113 3
-33 36 -22 41 96 44 l112 3 3 35 c4 46 -34 120 -73 141 -38 21 -91 29 -130 20z
m87 -88 c35 -32 23 -43 -47 -43 -71 0 -85 15 -43 44 29 21 67 20 90 -1z"/>
<path d="M530 450 l0 -170 40 0 40 0 0 170 0 170 -40 0 -40 0 0 -170z"/>
<path d="M1272 498 c5 -137 19 -178 68 -203 38 -20 90 -19 118 1 21 15 24 15
36 -1 8 -11 23 -16 46 -13 l35 3 3 168 2 167 -45 0 -45 0 0 -108 c0 -130 -11
-155 -68 -150 -51 4 -62 30 -62 156 l0 102 -46 0 -47 0 5 -122z"/>
<path d="M1612 453 l3 -168 43 -3 42 -3 0 96 c0 129 19 165 86 165 21 0 24 4
24 40 0 36 -2 40 -25 40 -15 0 -39 -7 -56 -15 -26 -14 -30 -14 -35 0 -4 10
-19 15 -45 15 l-39 0 2 -167z"/>
</g>
</svg>
